<?xml version="1.0" encoding="UTF-8"?>
<svg width="831px" height="316px" viewBox="0 0 831 316" version="1.1" xmlns="http://www.w3.org/2000/svg" xmlns:xlink="http://www.w3.org/1999/xlink">
    <!-- Generator: Sketch 49.2 (51160) - http://www.bohemiancoding.com/sketch -->
    <title>Origin Logo</title>
    <desc>Created with Sketch.</desc>
    <defs></defs>
    <g id="Origin-Logo" stroke="none" stroke-width="1" fill="none" fill-rule="evenodd">
        <g id="Vietnovel-logo-v2" transform="translate(29.000000, 29.000000)" fill="#ED1C24" fill-rule="nonzero">
            <path d="M0.203088283,190.151304 C1.35037641,171.94172 6.51846815,145.763037 13.977606,109.910841 C21.440274,74.0621443 28.3275329,43.9006618 29.7642907,23.1292069 C30.6256393,10.326851 27.7556539,7.19450862 31.7729274,6.05706584 C33.2096851,5.48659455 46.4087938,3.49869456 57.3168563,8.04846565 C67.0705704,12.0312653 69.9440859,19.7133788 69.9440859,28.2494493 C69.9440859,44.7511191 56.7414471,79.1788869 45.2615056,115.031083 C33.2096851,152.304208 17.137061,203.524131 28.0415934,203.524131 C48.4174305,203.524131 133.369704,64.6721168 147.430161,29.3903919 C151.161495,20.2838501 152.022844,12.8887221 152.308783,8.05196548 C152.308783,1.79078049 156.611996,1.22380902 163.788725,2.64473753 C171.251393,4.3526516 179,8.90592251 179,19.4333928 C179,28.8234204 174.693257,40.4883335 164.650073,60.4058314 C132.218885,125.562053 60.7587206,226 19.7175768,226 C7.95169578,226 -1.51960897,215.189044 0.203088283,190.151304 Z" id="Shape"></path>
            <path d="M142,165.491956 C142,157.346108 144.892961,146.387057 152.136053,131.491595 C156.190475,123.06581 160.537042,114.916506 165.172194,110.980095 C172.992453,104.237393 192.687392,106.767202 190.079451,113.789842 C188.052241,119.125943 179.074085,130.368387 172.700306,141.044045 C167.199404,150.59995 163.430004,159.589067 163.430004,165.768438 C163.430004,170.544662 165.745798,173.35441 171.250263,173.35441 C183.417089,173.35441 197.607564,162.675296 205.719969,153.686179 L207.455034,152.003095 C208.612931,150.879888 214.986709,152.003095 212.378769,155.096237 L210.062974,157.902528 C197.31898,171.66787 184.28284,186 164.587901,186 C156.194037,186 142,181.503713 142,165.491956 Z M175.600393,92.1551341 C172.411723,89.3453869 174.442496,76.4198585 179.654814,72.2069657 C185.740009,67.430741 201.957694,77.8264601 201.957694,85.9723078 C201.957694,91.3118643 195.8725,95.2448192 187.475074,95.2448192 C182.262755,95.2448192 177.335457,93.8416736 175.600393,92.1551341 Z" id="Shape"></path>
            <path d="M282.389386,157.799393 L280.114081,160.723447 C271.863478,170.38507 256.77646,190 231.450573,190 C210.958832,190 201,176.535667 201,159.553105 C201,131.446895 227.180001,101 249.096433,101 C260.763493,101 268.730559,107.733967 268.730559,117.39559 C268.730559,125.591584 263.038797,135.840178 249.947046,145.793486 C241.125867,152.527453 232.017648,157.504107 222.342354,158.674449 C222.342354,168.923043 227.46704,176.827352 238.279986,176.827352 C251.371737,176.827352 266.455254,166.578758 275.84351,156.333765 L277.551739,154.580053 C278.692891,153.40611 284.951728,154.576452 282.389386,157.799393 Z M224.050583,147.255513 C241.125867,140.22986 252.509389,126.174954 252.509389,120.027959 C252.509389,117.97896 251.371737,117.103905 249.37647,117.103905 C242.550557,117.103905 228.88823,131.155209 224.050583,147.255513 Z" id="Shape"></path>
            <path d="M334.492504,71.3853475 C317.451476,105.269448 297.573771,146.492325 297.573771,164.56315 C297.573771,171.620601 300.696911,173.034175 305.807822,173.034175 C314.614798,173.034175 328.529192,161.739475 339.320446,151.007426 L341.025247,149.316 C342.160617,148.187224 348.410391,149.316 345.853189,152.424473 L343.582449,155.244675 C339.889877,160.044575 316.885538,188 294.7336,188 C283.089945,188 274,180.942549 274,165.976724 C274,146.492325 291.893428,108.374448 308.082055,75.0529992 C293.311767,77.0292244 293.881199,77.0292244 291.323997,77.0292244 C281.385144,77.0292244 279.110911,72.7919753 279.110911,68.8395249 C279.110911,66.2971754 280.246281,63.7582991 280.815712,62.9073761 C281.951082,60.6498254 282.803483,61.4972752 285.926623,61.7786008 C293.311767,62.9073761 298.139709,63.1921748 313.758904,62.9073761 C320.008678,49.9212496 325.402558,38.3417508 328.812161,29.5894002 C335.914336,11.233776 334.492504,7 337.619138,7 C352.955364,7 358.069768,12.64735 358.069768,18.8573512 C358.069768,25.6334766 353.241826,33.5418506 349.549254,40.8841002 C346.426114,47.0941014 343.016511,54.4363511 339.04097,62.0599263 L363.467142,61.493802 C369.999885,61.7751276 369.430453,64.6022758 368.295084,66.5750278 C354.656672,68.5581993 343.578956,69.9717734 334.492504,71.3853475 Z" id="Shape"></path>
            <path d="M389.554846,173.600058 C389.554846,166.191115 392.975604,155.924487 397.531942,147.659992 C398.099732,146.520424 397.815837,145.952393 396.960648,146.236409 C386.134087,149.942633 350.230142,187.85342 343.108235,187.85342 C338.832286,187.85342 330,181.584044 330,176.45073 C330,175.314669 339.119686,154.216889 346.809383,134.549704 C350.801437,124.570598 353.934795,115.734565 355.929069,109.749205 C358.207239,101.768726 356.784259,100.057621 359.349828,99.2020685 C360.205018,98.9145468 377.017906,97.2069485 377.017906,112.312356 C377.017906,123.999061 367.326925,140.535064 361.060207,151.082201 C358.782038,154.50441 360.488913,153.932873 365.332651,149.374603 C377.014401,139.111481 401.804386,120.296342 414.057431,120.296342 C419.756358,120.296342 426.878266,128.276822 426.878266,134.549704 C426.878266,141.390616 406.935524,173.319549 415.483915,173.319549 C420.327653,173.319549 437.140541,161.91686 442.835964,155.643978 L444.546343,153.93638 C445.685428,152.796812 451.952145,153.93638 449.390081,157.074574 L447.111912,159.92174 C430.302529,178.733372 417.194294,189 404.08606,189 C395.537668,188.992987 389.554846,182.43609 389.554846,173.600058 Z" id="Shape"></path>
            <path d="M535.383689,156.795677 L533.086296,159.62077 C525.04189,169.522509 513.54786,177.722931 496.020525,176.874012 C487.403537,186.212124 476.768379,193 465.850465,193 C450.330697,193 442,181.400422 442,164.996099 C442,134.167106 473.318756,94 497.741802,94 C506.93844,94 512.975279,99.6571429 512.975279,108.424671 C512.975279,115.212546 510.677887,112.665788 504.354757,114.363627 C480.794117,121.718608 462.976957,157.355825 462.976957,172.632894 C462.976957,176.874012 463.839363,180.26621 467.002695,180.26621 C474.757277,180.26621 489.128349,162.731154 492.001856,152.547601 C483.953915,135.29088 495.737769,118.604744 506.079568,118.604744 C511.250468,118.604744 516.135077,123.131154 516.135077,133.314707 C516.135077,143.780074 510.677887,157.355825 502.63348,168.951924 C512.692523,169.51903 521.023221,163.012968 528.781337,155.376173 L530.502614,153.681813 C531.647776,152.551081 537.970906,153.681813 535.383689,156.795677 Z" id="Shape"></path>
            <path d="M526,172.395624 C526,161.521029 530.138128,145.497718 530.965754,142.354995 C532.89575,134.915224 535.378627,122.326736 536.480997,116.319314 C537.858112,107.447193 537.583367,102.587059 538.132857,100.581066 C538.685738,99.4372975 539.788108,98.8671731 541.443359,98.8671731 C547.511483,98.8671731 560.468574,107.162131 560.468574,117.748145 C560.468574,125.187916 554.129097,142.069933 550.818594,151.512178 C546.130977,164.959371 543.6481,176.689153 546.405721,176.689153 C549.716224,176.689153 560.74671,159.807136 572.604822,137.20276 C578.39481,126.331684 586.389538,110.023311 590.252922,96.002474 C590.802411,94.5736437 591.077156,94 592.457662,94 C597.969514,94 609,102.298477 609,109.449667 C609,123.755566 563.50094,195 539.788108,195 C530.687617,194.996481 526,184.125405 526,172.395624 Z" id="Shape"></path>
            <path d="M687.390811,157.799393 L685.115369,160.723447 C676.864267,170.38507 661.776335,190 636.448915,190 C615.955934,190 606,176.535667 606,159.553105 C606,131.446895 632.181586,101 654.095843,101 C665.76361,101 673.731158,107.733967 673.731158,117.39559 C673.731158,125.591584 668.039052,135.840178 654.946509,145.793486 C646.124795,152.527453 637.019526,157.504107 627.340146,158.674449 C627.340146,168.923043 632.465141,176.827352 643.278742,176.827352 C656.371285,176.827352 671.455716,166.578758 680.84454,156.333765 L682.552872,154.580053 C683.690593,153.40611 689.949809,154.576452 687.390811,157.799393 Z M629.048478,147.255513 C646.124795,140.22986 657.509006,126.174954 657.509006,120.027959 C657.509006,117.97896 656.371285,117.103905 654.375898,117.103905 C647.546071,117.103905 633.886417,131.155209 629.048478,147.255513 Z" id="Shape"></path>
            <path d="M678,162.547854 C678,144.613036 684.300705,119.275992 699.199687,86.2530975 C711.801096,59.4944335 742.744323,0 772.538763,0 C780.555599,0 786,5.69348177 786,16.2260729 C786,41.2759921 747.036413,102.195547 713.520752,121.839109 C709.507048,128.670587 702.63195,151.728138 702.63195,166.248967 C702.63195,173.934818 704.351605,179.341174 709.507048,179.341174 C719.536022,179.341174 736.725529,163.682349 746.176586,154.291255 L747.896241,152.586012 C749.041504,151.448016 755.342208,152.586012 752.766249,155.719878 L750.475724,158.563117 C738.445184,173.36757 718.676194,195 699.767032,195 C686.880188,194.996498 678,184.180284 678,162.547854 Z M758.788567,48.3910936 C768.814017,31.5977734 774.543853,17.9313162 771.96437,17.9313162 C769.95928,17.9313162 764.229444,24.1955468 753.344166,40.7052433 C731.855521,72.5866403 718.965153,101.054049 718.965153,101.341174 C728.134299,94.5096965 745.894675,69.743401 758.788567,48.3910936 Z" id="Shape"></path>
        </g>
        <path d="M508.563307,239 C521.055986,239 531.126615,249.042373 531.126615,261.5 C531.126615,273.957627 521.055986,284 508.563307,284 C496.070629,284 486,273.957627 486,261.5 C486,249.042373 496.070629,239 508.563307,239 Z M508.563307,278.34322 C517.80534,278.34322 524.944014,270.716102 524.944014,261.5 C524.944014,252.283898 517.80534,244.65678 508.563307,244.65678 C499.257537,244.65678 492.118863,252.283898 492.118863,261.5 C492.118863,270.716102 499.257537,278.34322 508.563307,278.34322 Z M556.239449,268.173729 L546.551249,268.173729 L546.551249,283.110169 L540.496124,283.110169 L540.496124,239.889831 L557.450474,239.889831 C567.202412,239.889831 574.086133,245.355932 574.086133,254 C574.086133,260.864407 569.815676,265.694915 563.186908,267.474576 L576.316968,283.110169 L568.859604,283.110169 L556.239449,268.173729 Z M546.551249,262.580508 L557.259259,262.580508 C563.44186,262.580508 568.094746,259.338983 568.094746,254 C568.094746,248.724576 563.44186,245.483051 557.259259,245.483051 L546.551249,245.483051 L546.551249,262.580508 Z M589.829457,239.889831 L589.829457,283.110169 L583.774332,283.110169 L583.774332,239.889831 L589.829457,239.889831 Z M642.923342,283.110169 L638.079242,283.110169 L637.633075,275.165254 C634.573643,280.567797 629.219638,284 621.634798,284 C608.75969,284 599.198966,273.957627 599.198966,261.881356 C599.198966,248.661017 609.333333,239 621.953488,239 C631.322997,239 640.182601,244.402542 642.668389,254.444915 L636.167097,254.444915 C633.936262,247.580508 627.689922,244.847458 622.017227,244.847458 C612.583979,244.847458 605.317829,251.775424 605.317829,261.881356 C605.317829,270.716102 612.010336,278.152542 621.634798,278.152542 C629.793282,278.152542 635.019811,272.813559 636.42205,265.567797 L621.18863,265.567797 L621.18863,259.974576 L642.923342,259.974576 L642.923342,283.110169 Z M659.495263,239.889831 L659.495263,283.110169 L653.440138,283.110169 L653.440138,239.889831 L659.495263,239.889831 Z M708,239.889831 L708,283.110169 L703.028424,283.110169 L676.513351,251.076271 L676.513351,283.110169 L670.458226,283.110169 L670.458226,239.889831 L675.238587,239.889831 L701.881137,272.432203 L701.881137,239.889831 L708,239.889831 Z" id="ORIGIN" fill="#FFFFFF"></path>
    </g>
</svg>