<svg id="Layer_1" data-name="Layer 1" xmlns="http://www.w3.org/2000/svg" viewBox="0 0 100 37"><defs><style>.cls-1{fill:#fff;}</style></defs><title>origin-logo-white</title><g id="Page-1"><g id="Vietnovel"><g id="Vietnovel-logo-v2"><path id="Shape" class="cls-1" d="M7,25.88A82.5,82.5,0,0,1,8.6,16.61a87.19,87.19,0,0,0,1.83-10c.1-1.46-.22-1.82.24-2a5.54,5.54,0,0,1,2.94.24A2.27,2.27,0,0,1,15.07,7.2c0,1.9-1.52,5.87-2.84,10-1.38,4.3-3.24,10.21-2,10.21,2.34,0,12.13-16,13.75-20.08a7.87,7.87,0,0,0,.56-2.46c0-.72.5-.78,1.32-.62A2,2,0,0,1,27.64,6.2c0,1.08-.5,2.42-1.66,4.73C22.24,18.43,14,30,9.27,30,7.92,30,6.82,28.76,7,25.88Z"/><path class="cls-1" d="M23.42,23a9.29,9.29,0,0,1,1.18-3.9,8.15,8.15,0,0,1,1.5-2.36c.9-.78,3.18-.48,2.88.32-.24.62-1.28,1.9-2,3.12a6.6,6.6,0,0,0-1.08,2.84.79.79,0,0,0,.9.89c1.4,0,3-1.23,4-2.27l.2-.2c.14-.12.86,0,.56.36l-.26.32c-1.48,1.61-3,3.25-5.26,3.25A2.41,2.41,0,0,1,23.42,23Zm3.88-8.42c-.36-.32-.14-1.8.46-2.28s2.58.64,2.58,1.58c0,.62-.7,1.06-1.68,1.06A2.26,2.26,0,0,1,27.3,14.61Z"/><path class="cls-1" d="M39.57,22.09l-.26.34c-.94,1.11-2.68,3.37-5.59,3.37a3.25,3.25,0,0,1-3.5-3.49c0-3.22,3-6.72,5.53-6.72A2,2,0,0,1,38,17.47c0,.94-.66,2.12-2.16,3.26a6.79,6.79,0,0,1-3.17,1.48c0,1.18.58,2.09,1.82,2.09,1.51,0,3.23-1.19,4.31-2.35l.2-.2C39.13,21.59,39.85,21.73,39.57,22.09Zm-6.71-1.2c2-.8,3.27-2.42,3.27-3.12,0-.24-.14-.34-.36-.34C35,17.43,33.42,19.05,32.86,20.89Z"/><path class="cls-1" d="M45.63,12.19c-2,3.9-4.28,8.64-4.28,10.7,0,.83.36,1,1,1,1,0,2.64-1.31,3.88-2.55l.2-.2c.14-.12.86,0,.56.36l-.26.32c-.42.56-3.1,3.77-5.66,3.77A2.29,2.29,0,0,1,38.63,23c0-2.24,2.08-6.62,3.94-10.44a15.11,15.11,0,0,1-1.94.22c-1.16,0-1.42-.48-1.42-.94a1.44,1.44,0,0,1,.2-.68c.14-.26.24-.16.6-.12a17,17,0,0,0,3.22.12C44,9.68,44.57,8.36,45,7.36c.82-2.1.66-2.6,1-2.6,1.78,0,2.37.64,2.37,1.36a6.88,6.88,0,0,1-1,2.54c-.36.72-.76,1.56-1.22,2.45L49,11.05c.76,0,.7.36.56.58C48,11.87,46.69,12,45.63,12.19Z"/><path class="cls-1" d="M51.88,24a7.08,7.08,0,0,1,.92-3c.06-.14,0-.2-.06-.16-1.24.42-5.39,4.81-6.21,4.81-.5,0-1.5-.72-1.5-1.32,0-.14,1-2.57,1.94-4.85.46-1.16.82-2.18,1.05-2.86.26-.92.1-1.12.4-1.22.1,0,2-.22,2,1.52,0,1.36-1.12,3.26-1.84,4.48-.26.4-.06.32.5-.2,1.34-1.18,4.2-3.36,5.6-3.36a1.85,1.85,0,0,1,1.48,1.64c0,.8-2.3,4.49-1.32,4.49A8.42,8.42,0,0,0,58,21.93l.2-.2c.14-.14.86,0,.56.36l-.26.32c-1.94,2.19-3.44,3.37-4.94,3.37A1.65,1.65,0,0,1,51.88,24Z"/><path class="cls-1" d="M68.77,22l-.26.32a4.91,4.91,0,0,1-4.26,2,5,5,0,0,1-3.47,1.86C59,26.2,58,24.86,58,23c0-3.56,3.61-8.18,6.41-8.18a1.61,1.61,0,0,1,1.76,1.66c0,.78-.26.48-1,.68-2.7.84-4.77,5-4.77,6.71,0,.48.1.88.47.88.9,0,2.54-2,2.88-3.21-.92-2,.42-3.9,1.62-3.9.6,0,1.16.52,1.16,1.7A7.85,7.85,0,0,1,65,23.41a4.13,4.13,0,0,0,3-1.56l.2-.2C68.35,21.53,69.07,21.67,68.77,22Z"/><path class="cls-1" d="M67.65,23.8a16.54,16.54,0,0,1,.58-3.47c.22-.86.52-2.3.64-3,.16-1,.12-1.58.2-1.8a.37.37,0,0,1,.38-.2,2.59,2.59,0,0,1,2.2,2.16,17.87,17.87,0,0,1-1.12,3.88c-.54,1.54-.82,2.91-.52,2.91s1.66-2,3-4.55a25.23,25.23,0,0,0,2-4.74c.06-.16.1-.22.26-.22.64,0,1.92,1,1.92,1.78,0,1.64-5.27,9.83-8,9.83C68.19,26.4,67.65,25.16,67.65,23.8Z"/><path class="cls-1" d="M86.2,22.09l-.26.34c-.94,1.11-2.68,3.37-5.58,3.37a3.25,3.25,0,0,1-3.5-3.49c0-3.22,3-6.72,5.52-6.72a2,2,0,0,1,2.26,1.88c0,.94-.66,2.12-2.16,3.26a6.72,6.72,0,0,1-3.16,1.48c0,1.18.58,2.09,1.82,2.09A6.74,6.74,0,0,0,85.44,22l.2-.2C85.76,21.59,86.48,21.73,86.2,22.09Zm-6.7-1.2c2-.8,3.26-2.42,3.26-3.12,0-.24-.14-.34-.36-.34C81.62,17.43,80.06,19.05,79.5,20.89Z"/><path class="cls-1" d="M85.26,22.67c0-2.06.72-5,2.45-8.76,1.44-3.08,5-9.91,8.42-9.91.92,0,1.54.66,1.54,1.86,0,2.88-4.48,9.89-8.32,12.15a14,14,0,0,0-1.26,5.1c0,.89.2,1.51.78,1.51,1.16,0,3.12-1.81,4.22-2.89l.2-.2c.14-.14.86,0,.56.36l-.26.32c-1.38,1.71-3.66,4.19-5.82,4.19C86.28,26.4,85.26,25.16,85.26,22.67ZM94.55,9.54C95.71,7.62,96.35,6,96.07,6s-.88.72-2.14,2.62a51.51,51.51,0,0,0-3.94,7C91,14.85,93.07,12,94.55,9.54Z"/></g></g></g><path class="cls-1" d="M64.6,30.6A2.65,2.65,0,1,1,62,28,2.64,2.64,0,0,1,64.6,30.6Zm-.54,0A2.11,2.11,0,1,0,62,32.76,2.13,2.13,0,0,0,64.06,30.6Z"/><path class="cls-1" d="M66.33,31.3v1.85H65.8V28.06h1.89c1.14,0,1.94.62,1.94,1.62a1.58,1.58,0,0,1-1.41,1.57l1.63,1.9h-.67L67.6,31.3Zm1.35-.49c.83,0,1.42-.42,1.42-1.13s-.59-1.13-1.42-1.13H66.33v2.26Z"/><path class="cls-1" d="M71.3,33.15h-.53V28.06h.53Z"/><path class="cls-1" d="M77.58,30.6v2.55h-.44l0-1.09a2.1,2.1,0,0,1-2,1.19,2.59,2.59,0,0,1-2.62-2.62A2.63,2.63,0,0,1,75.16,28a2.42,2.42,0,0,1,2.41,1.78H77a1.83,1.83,0,0,0-1.82-1.27A2.1,2.1,0,0,0,73,30.63a2.07,2.07,0,0,0,2.09,2.11A1.88,1.88,0,0,0,77,31H75.08v-.49h2.5v.12Z"/><path class="cls-1" d="M79.62,33.15h-.53V28.06h.53Z"/><path class="cls-1" d="M85.36,33.15H84.9L81.58,29v4.12h-.53V28.06h.43l3.35,4.17V28.06h.53Z"/></svg>