<?xml version="1.0" encoding="utf-8"?>
<!-- Generator: Adobe Illustrator 19.0.0, SVG Export Plug-In . SVG Version: 6.00 Build 0)  -->
<svg version="1.1" id="Layer_1" xmlns="http://www.w3.org/2000/svg" xmlns:xlink="http://www.w3.org/1999/xlink" x="0px" y="0px"
	 viewBox="110 239 831 316" style="enable-background:new 110 239 831 316;" xml:space="preserve">
<style type="text/css">
	.st0{fill:#ED1C24;}
	.st1{fill:#343A40;}
</style>
<title>Origin Logo</title>
<desc>Created with Sketch.</desc>
<g id="Origin-Logo">
	<g id="Vietnovel-logo-v2" transform="translate(29.000000, 29.000000)">
		<path id="Shape" class="st0" d="M110.2,429.2c1.1-18.2,6.3-44.4,13.8-80.2s14.3-66,15.8-86.8c0.9-12.8-2-15.9,2-17.1
			c1.4-0.6,14.6-2.6,25.5,2c9.8,4,12.6,11.7,12.6,20.2c0,16.5-13.2,50.9-24.7,86.8c-12.1,37.3-28.1,88.5-17.2,88.5
			c20.4,0,105.3-138.9,119.4-174.1c3.7-9.1,4.6-16.5,4.9-21.3c0-6.3,4.3-6.8,11.5-5.4c7.5,1.7,15.2,6.3,15.2,16.8
			c0,9.4-4.3,21.1-14.3,41c-32.5,65-103.9,165.4-145,165.4C118,465,108.5,454.2,110.2,429.2z"/>
		<path id="Shape_1_" class="st0" d="M252,404.5c0-8.1,2.9-19.1,10.1-34c4.1-8.4,8.4-16.6,13-20.5c7.8-6.7,27.5-4.2,24.9,2.8
			c-2,5.3-11,16.6-17.4,27.3c-5.5,9.6-9.3,18.5-9.3,24.7c0,4.8,2.3,7.6,7.8,7.6c12.2,0,26.4-10.7,34.5-19.7l1.7-1.7
			c1.2-1.1,7.5,0,4.9,3.1l-2.3,2.8c-12.7,13.8-25.8,28.1-45.5,28.1C266.2,425,252,420.5,252,404.5z M285.6,331.2
			c-3.2-2.8-1.2-15.7,4.1-19.9c6.1-4.8,22.3,5.6,22.3,13.8c0,5.3-6.1,9.3-14.5,9.3C292.3,334.2,287.3,332.8,285.6,331.2z"/>
		<path id="Shape_2_" class="st0" d="M392.4,396.8l-2.3,2.9c-8.3,9.7-23.3,29.3-48.7,29.3c-20.5,0-30.5-13.5-30.5-30.4
			c0-28.1,26.2-58.6,48.1-58.6c11.7,0,19.6,6.7,19.6,16.4c0,8.2-5.7,18.4-18.8,28.4c-8.8,6.7-17.9,11.7-27.6,12.9
			c0,10.2,5.1,18.2,15.9,18.2c13.1,0,28.2-10.2,37.6-20.5l1.7-1.8C388.7,392.4,395,393.6,392.4,396.8z M334.1,386.3
			c17.1-7,28.5-21.1,28.5-27.2c0-2-1.1-2.9-3.1-2.9C352.6,356.1,338.9,370.2,334.1,386.3z"/>
		<path id="Shape_3_" class="st0" d="M444.5,310.4c-17,33.9-36.9,75.1-36.9,93.2c0,7.1,3.1,8.5,8.2,8.5c8.8,0,22.7-11.3,33.5-22
			l1.7-1.7c1.1-1.1,7.4,0,4.8,3.1l-2.3,2.8c-3.7,4.8-26.7,32.8-48.8,32.8c-11.6,0-20.7-7.1-20.7-22c0-19.5,17.9-57.6,34.1-90.9
			c-14.8,2-14.2,2-16.8,2c-9.9,0-12.2-4.2-12.2-8.2c0-2.5,1.1-5.1,1.7-5.9c1.1-2.3,2-1.4,5.1-1.1c7.4,1.1,12.2,1.4,27.8,1.1
			c6.2-13,11.6-24.6,15.1-33.3c7.1-18.4,5.7-22.6,8.8-22.6c15.3,0,20.5,5.6,20.5,11.9c0,6.8-4.8,14.7-8.5,22
			c-3.1,6.2-6.5,13.6-10.5,21.2l24.4-0.6c6.5,0.3,6,3.1,4.8,5.1C464.7,307.6,453.6,309,444.5,310.4z"/>
		<path id="Shape_4_" class="st0" d="M499.6,412.6c0-7.4,3.4-17.7,8-25.9c0.6-1.1,0.3-1.7-0.6-1.4c-10.8,3.7-46.7,41.6-53.9,41.6
			c-4.3,0-13.1-6.3-13.1-11.4c0-1.1,9.1-22.2,16.8-41.9c4-10,7.1-18.8,9.1-24.8c2.3-8,0.9-9.7,3.4-10.5c0.9-0.3,17.7-2,17.7,13.1
			c0,11.7-9.7,28.2-16,38.8c-2.3,3.4-0.6,2.9,4.3-1.7c11.7-10.3,36.5-29.1,48.7-29.1c5.7,0,12.8,8,12.8,14.3
			c0,6.8-19.9,38.8-11.4,38.8c4.8,0,21.7-11.4,27.4-17.7l1.7-1.7c1.1-1.1,7.4,0,4.8,3.1L557,399c-16.8,18.8-29.9,29.1-43,29.1
			C505.5,428,499.6,421.4,499.6,412.6z"/>
		<path id="Shape_5_" class="st0" d="M645.4,395.8l-2.3,2.8c-8,9.9-19.5,18.1-37.1,17.3c-8.6,9.3-19.3,16.1-30.2,16.1
			c-15.5,0-23.9-11.6-23.9-28c0-30.8,31.3-71,55.7-71c9.2,0,15.2,5.7,15.2,14.4c0,6.8-2.3,4.2-8.6,5.9c-23.6,7.4-41.4,43-41.4,58.3
			c0,4.2,0.9,7.6,4,7.6c7.8,0,22.1-17.5,25-27.7c-8-17.3,3.7-33.9,14.1-33.9c5.2,0,10.1,4.5,10.1,14.7c0,10.5-5.5,24-13.5,35.6
			c10.1,0.6,18.4-5.9,26.1-13.6l1.7-1.7C641.6,391.6,648,392.7,645.4,395.8z"/>
		<path id="Shape_6_" class="st0" d="M636,411.4c0-10.9,4.1-26.9,5-30c1.9-7.4,4.4-20,5.5-26c1.4-8.9,1.1-13.7,1.7-15.7
			c0.6-1.1,1.7-1.7,3.3-1.7c6.1,0,19,8.3,19,18.9c0,7.4-6.3,24.3-9.6,33.8c-4.7,13.4-7.2,25.2-4.4,25.2c3.3,0,14.3-16.9,26.2-39.5
			c5.8-10.9,13.8-27.2,17.6-41.2c0.5-1.4,0.8-2,2.2-2c5.5,0,16.5,8.3,16.5,15.4c0,14.3-45.5,85.6-69.2,85.6
			C640.7,434,636,423.1,636,411.4z"/>
		<path id="Shape_7_" class="st0" d="M797.4,396.8l-2.3,2.9c-8.3,9.7-23.3,29.3-48.7,29.3c-20.5,0-30.4-13.5-30.4-30.4
			c0-28.1,26.2-58.6,48.1-58.6c11.7,0,19.6,6.7,19.6,16.4c0,8.2-5.7,18.4-18.8,28.4c-8.8,6.7-17.9,11.7-27.6,12.9
			c0,10.2,5.1,18.2,15.9,18.2c13.1,0,28.2-10.2,37.6-20.5l1.7-1.8C793.7,392.4,799.9,393.6,797.4,396.8z M739,386.3
			c17.1-7,28.5-21.1,28.5-27.2c0-2-1.1-2.9-3.1-2.9C757.5,356.1,743.9,370.2,739,386.3z"/>
		<path id="Shape_8_" class="st0" d="M788,401.5c0-17.9,6.3-43.3,21.2-76.3c12.6-26.7,43.5-86.2,73.3-86.2c8,0,13.5,5.7,13.5,16.2
			c0,25-39,86-72.5,105.6c-4,6.8-10.9,29.9-10.9,44.4c0,7.7,1.7,13.1,6.9,13.1c10,0,27.2-15.7,36.7-25l1.7-1.7
			c1.1-1.1,7.4,0,4.9,3.1l-2.3,2.8c-12,14.8-31.8,36.4-50.7,36.4C796.9,434,788,423.2,788,401.5z M868.8,287.4
			c10-16.8,15.8-30.5,13.2-30.5c-2,0-7.7,6.3-18.6,22.8C841.9,311.6,829,340,829,340.3C838.1,333.5,855.9,308.7,868.8,287.4z"/>
	</g>
	<path id="ORIGIN" class="st1" d="M618.6,478c12.5,0,22.6,10,22.6,22.5S631.1,523,618.6,523c-12.5,0-22.6-10-22.6-22.5
		S606.1,478,618.6,478z M618.6,517.3c9.2,0,16.4-7.6,16.4-16.8s-7.1-16.8-16.4-16.8c-9.3,0-16.4,7.6-16.4,16.8
		S609.3,517.3,618.6,517.3z M666.2,507.2h-9.7v14.9h-6.1v-43.2h17c9.8,0,16.6,5.5,16.6,14.1c0,6.9-4.3,11.7-10.9,13.5l13.1,15.6
		h-7.5L666.2,507.2z M656.6,501.6h10.7c6.2,0,10.8-3.2,10.8-8.6c0-5.3-4.7-8.5-10.8-8.5h-10.7V501.6z M699.8,478.9v43.2h-6.1v-43.2
		L699.8,478.9L699.8,478.9z M752.9,522.1h-4.8l-0.4-7.9c-3.1,5.4-8.4,8.8-16,8.8c-12.9,0-22.4-10-22.4-22.1
		c0-13.2,10.1-22.9,22.8-22.9c9.4,0,18.2,5.4,20.7,15.4h-6.5c-2.2-6.9-8.5-9.6-14.1-9.6c-9.4,0-16.7,6.9-16.7,17
		c0,8.8,6.7,16.3,16.3,16.3c8.2,0,13.4-5.3,14.8-12.6h-15.2V499h21.7v23.1H752.9z M769.5,478.9v43.2h-6.1v-43.2L769.5,478.9
		L769.5,478.9z M818,478.9v43.2h-5l-26.5-32v32h-6.1v-43.2h4.8l26.6,32.5v-32.5L818,478.9L818,478.9z"/>
</g>
</svg>
